<?xml version="1.0" encoding="UTF-8" standalone="no"?>
<!-- Created with Inkscape (http://www.inkscape.org/) -->

<svg
   width="56.081863mm"
   height="6.6226416mm"
   viewBox="0 0 56.081863 6.6226416"
   version="1.1"
   id="svg1"
   xmlns:xlink="http://www.w3.org/1999/xlink"
   xmlns="http://www.w3.org/2000/svg"
   xmlns:svg="http://www.w3.org/2000/svg">
  <defs
     id="defs1">
    <color-profile
       name="Blue"
       xlink:href="file:///usr/share/color/icc/colord/Bluish.icc"
       id="color-profile2" />
  </defs>
  <g
     id="layer1"
     transform="translate(-38.049348,-32.218349)">
    <g
       id="g3">
      <path
         d="m 40.86055,36.723398 q 0,-0.261828 -0.186035,-0.430638 -0.186036,-0.168809 -0.795818,-0.361735 -0.685575,-0.220486 -1.181669,-0.571886 -0.496094,-0.3514 -0.496094,-1.002524 0,-0.630452 0.52021,-1.016303 0.52021,-0.385851 1.333253,-0.385851 0.833714,0 1.336698,0.437527 0.502984,0.434082 0.502984,1.109322 H 40.86055 q 0,-0.316949 -0.203261,-0.52021 -0.203261,-0.203261 -0.620118,-0.203261 -0.406521,0 -0.606337,0.172255 -0.19637,0.16881 -0.19637,0.409967 0,0.248047 0.254937,0.413411 0.254937,0.165365 0.740696,0.313504 0.823378,0.251492 1.24368,0.630453 0.423747,0.378961 0.423747,0.999078 0,0.658014 -0.496094,1.026639 -0.496094,0.365181 -1.322917,0.365181 -0.49954,0 -0.964628,-0.1757 -0.465088,-0.1757 -0.764811,-0.54088 -0.299724,-0.365181 -0.299724,-0.933622 h 1.036974 q 0,0.458198 0.272163,0.644233 0.275608,0.186036 0.720026,0.186036 0.399631,0 0.589111,-0.16192 0.192926,-0.16192 0.192926,-0.403076 z m 2.83187,-3.700035 v 5.016062 h -1.033529 v -5.016062 z m 4.93338,2.380562 v 2.001602 q -0.179145,0.213596 -0.637343,0.458198 -0.454753,0.244602 -1.281576,0.244602 -0.974963,0 -1.577855,-0.630453 -0.599447,-0.633898 -0.599447,-1.794896 v -0.299723 q 0,-1.160998 0.575331,-1.794896 0.575332,-0.637343 1.529624,-0.637343 0.974963,0 1.440051,0.468533 0.465088,0.468533 0.54777,1.198894 h -1.005968 q -0.05857,-0.378961 -0.272163,-0.606337 -0.213596,-0.227377 -0.682129,-0.227377 -1.081761,0 -1.081761,1.591635 v 0.306614 q 0,1.591635 1.181668,1.591635 0.372071,0 0.558106,-0.08268 0.186036,-0.08613 0.268718,-0.165365 v -0.864719 h -0.937067 v -0.757922 z m 0.833714,2.6355 v -5.016062 h 3.355525 v 0.837158 h -2.318551 v 1.195449 h 1.980931 v 0.809598 h -1.980931 v 1.340143 h 2.328886 v 0.833714 z m 5.067739,-5.016062 v 5.016062 h -1.03353 v -5.016062 z m 0.961183,5.016062 v -5.016062 h 1.546849 q 1.012858,0 1.650201,0.661458 0.640789,0.661459 0.640789,1.73633 v 0.223931 q 0,1.07487 -0.640789,1.736329 -0.637343,0.658014 -1.663982,0.658014 z m 1.546849,-4.178904 H 56.52541 v 3.34519 h 0.496094 q 0.616673,0 0.933622,-0.403076 0.320394,-0.406522 0.320394,-1.157553 V 35.41426 q 0,-1.553739 -1.240235,-1.553739 z"
         id="text1"
         style="font-weight:bold;font-size:7.05556px;font-family:Roboto;-inkscape-font-specification:'Roboto, Bold';fill:#ffffff;stroke-width:1.97"
         aria-label="SIGEID" />
      <g
         id="text2"
         style="font-size:2.82222px;font-family:Roboto;-inkscape-font-specification:'Roboto, Normal';fill:#ffffff;stroke-width:1.97"
         aria-label="Sistema de Gestión de&#10;Instalaciones Deportivas">
        <path
           d="m 64.609519,34.030366 q 0,-0.14056 -0.09646,-0.223242 -0.09646,-0.08268 -0.380338,-0.165365 -0.297656,-0.08682 -0.474045,-0.221864 -0.176388,-0.136426 -0.176388,-0.370692 0,-0.234266 0.186035,-0.389984 0.187413,-0.155719 0.496093,-0.155719 0.338997,0 0.522276,0.186035 0.184657,0.186035 0.184657,0.420302 h -0.264583 q 0,-0.168121 -0.108865,-0.278364 -0.108865,-0.110243 -0.333485,-0.110243 -0.212218,0 -0.314192,0.09371 -0.101975,0.09233 -0.101975,0.23151 0,0.126779 0.110243,0.21084 0.111621,0.08406 0.359667,0.152962 0.340376,0.09646 0.49885,0.239778 0.159852,0.143316 0.159852,0.377582 0,0.245291 -0.191547,0.391363 -0.191547,0.146072 -0.508496,0.146072 -0.184657,0 -0.359667,-0.0689 -0.173633,-0.0689 -0.286632,-0.203949 -0.111621,-0.136426 -0.111621,-0.336241 h 0.264583 q 0,0.205327 0.150206,0.299034 0.150206,0.09371 0.343131,0.09371 0.208084,0 0.319705,-0.08544 0.112999,-0.08682 0.112999,-0.232888 z m 0.569129,-1.379416 q 0,-0.06201 0.03721,-0.10473 0.03858,-0.04272 0.112999,-0.04272 0.07304,0 0.111621,0.04272 0.03996,0.04272 0.03996,0.10473 0,0.05926 -0.03996,0.101975 -0.03859,0.04134 -0.111621,0.04134 -0.07441,0 -0.112999,-0.04134 -0.03721,-0.04272 -0.03721,-0.101975 z m 0.275608,0.395497 v 1.491036 h -0.256315 v -1.491036 z m 1.27744,1.09554 q 0,-0.08268 -0.06201,-0.14745 -0.06063,-0.06615 -0.281119,-0.110243 -0.249425,-0.05237 -0.394119,-0.148828 -0.143316,-0.09646 -0.143316,-0.28112 0,-0.176389 0.150206,-0.305924 0.151585,-0.129536 0.402387,-0.129536 0.26734,0 0.417546,0.136426 0.150206,0.136426 0.150206,0.329351 H 66.71654 q 0,-0.09233 -0.0813,-0.173633 -0.08131,-0.08268 -0.231511,-0.08268 -0.158474,0 -0.227376,0.0689 -0.0689,0.0689 -0.0689,0.150206 0,0.08268 0.06615,0.133669 0.06615,0.04961 0.276986,0.09646 0.274229,0.06339 0.405142,0.163986 0.130914,0.100597 0.130914,0.28112 0,0.197059 -0.158474,0.319705 -0.157096,0.122645 -0.417546,0.122645 -0.296277,0 -0.453374,-0.151584 -0.157096,-0.151584 -0.157096,-0.336241 h 0.256315 q 0.0083,0.158474 0.121267,0.219108 0.114377,0.05926 0.232888,0.05926 0.155719,0 0.238401,-0.06063 0.08268,-0.06063 0.08268,-0.152962 z m 1.219563,0.395496 q -0.03032,0.0096 -0.07993,0.01791 -0.04823,0.0096 -0.117133,0.0096 -0.141938,0 -0.242535,-0.08682 -0.100596,-0.08682 -0.100596,-0.311437 v -0.924663 h -0.272852 v -0.195681 h 0.272852 v -0.362424 h 0.254936 v 0.362424 h 0.278364 v 0.195681 h -0.278364 v 0.926041 q 0,0.114377 0.04961,0.146072 0.04961,0.03169 0.114377,0.03169 0.03169,0 0.06615,-0.0055 0.03583,-0.0069 0.05374,-0.01102 z m 1.471744,-0.260449 q -0.07304,0.110243 -0.206706,0.199816 -0.133669,0.08819 -0.354155,0.08819 -0.311437,0 -0.49885,-0.202572 -0.186035,-0.202571 -0.186035,-0.518141 v -0.05788 q 0,-0.243913 0.09233,-0.414789 0.09371,-0.172255 0.242534,-0.261827 0.148828,-0.09095 0.316949,-0.09095 0.319705,0 0.465777,0.209462 0.147449,0.208084 0.147449,0.520898 v 0.114377 h -1.008723 q 0.0055,0.205328 0.121268,0.350021 0.117133,0.143316 0.321082,0.143316 0.135048,0 0.228754,-0.05512 0.09371,-0.05512 0.163987,-0.14745 z m -0.593934,-1.048686 q -0.151584,0 -0.256315,0.110243 -0.104731,0.110243 -0.130913,0.316948 h 0.745518 v -0.01929 q -0.0096,-0.148828 -0.08682,-0.278364 -0.07579,-0.129535 -0.271473,-0.129535 z m 1.507572,0.0055 q -0.136425,0 -0.219107,0.05788 -0.08268,0.05788 -0.124024,0.152962 v 1.092783 h -0.256315 v -1.491036 h 0.242535 l 0.0069,0.162608 q 0.16123,-0.190169 0.440972,-0.190169 0.143316,0 0.254937,0.05788 0.112999,0.0565 0.172254,0.181901 0.07441,-0.107487 0.192926,-0.173633 0.119889,-0.06615 0.281119,-0.06615 0.239779,0 0.369314,0.128158 0.130914,0.128157 0.130914,0.410655 v 0.979784 h -0.256315 v -0.98254 q 0,-0.187413 -0.08682,-0.253559 -0.08544,-0.06752 -0.23151,-0.06752 -0.15434,0 -0.242534,0.09233 -0.08819,0.09095 -0.101975,0.221864 v 0.98943 h -0.254937 v -0.981162 q 0,-0.175011 -0.08682,-0.248047 -0.08682,-0.07441 -0.231511,-0.07441 z m 2.798794,1.303623 q -0.0248,-0.05374 -0.03583,-0.157096 -0.07166,0.07579 -0.179145,0.130914 -0.107486,0.05374 -0.24529,0.05374 -0.228754,0 -0.366558,-0.128157 -0.137804,-0.128158 -0.137804,-0.314193 0,-0.239778 0.181901,-0.363802 0.181901,-0.125401 0.489203,-0.125401 h 0.252181 V 33.51498 q 0,-0.132292 -0.07993,-0.21084 -0.07855,-0.07993 -0.234266,-0.07993 -0.144694,0 -0.234267,0.07166 -0.08819,0.07028 -0.08819,0.163986 h -0.254937 q 0,-0.159852 0.16123,-0.300412 0.161231,-0.14056 0.431326,-0.14056 0.242535,0 0.398253,0.124024 0.155718,0.124023 0.155718,0.374826 v 0.69453 q 0,0.07441 0.0124,0.158475 0.01378,0.08406 0.03996,0.144694 v 0.02205 z M 72.712378,34.34179 q 0.137804,0 0.2384,-0.0689 0.101975,-0.0689 0.143316,-0.152962 v -0.307302 h -0.21084 q -0.45613,0 -0.45613,0.275607 0,0.106109 0.07166,0.180523 0.07166,0.07304 0.213596,0.07304 z m 2.699574,0.195681 -0.0124,-0.159852 q -0.152962,0.187413 -0.425813,0.187413 -0.263205,0 -0.425814,-0.214974 -0.16123,-0.214974 -0.16123,-0.541568 v -0.02894 q 0,-0.341753 0.16123,-0.551215 0.162609,-0.209462 0.42857,-0.209462 0.263205,0 0.413411,0.176389 v -0.774457 h 0.256315 V 34.53747 Z M 74.643008,33.80849 q 0,0.221864 0.09371,0.381716 0.09371,0.158474 0.300412,0.158474 0.13367,0 0.21773,-0.06063 0.08406,-0.06063 0.135048,-0.155718 V 33.44607 q -0.04961,-0.09233 -0.135048,-0.151584 -0.08406,-0.06063 -0.214974,-0.06063 -0.208083,0 -0.303168,0.162608 -0.09371,0.161231 -0.09371,0.383095 z m 2.578307,0.468532 q -0.07304,0.110243 -0.206705,0.199816 -0.13367,0.08819 -0.354156,0.08819 -0.311436,0 -0.498849,-0.202572 -0.186035,-0.202571 -0.186035,-0.518141 v -0.05788 q 0,-0.243913 0.09233,-0.414789 0.09371,-0.172255 0.242535,-0.261827 0.148828,-0.09095 0.316948,-0.09095 0.319705,0 0.465777,0.209462 0.14745,0.208084 0.14745,0.520898 v 0.114377 h -1.008724 q 0.0055,0.205328 0.121268,0.350021 0.117133,0.143316 0.321082,0.143316 0.135048,0 0.228755,-0.05512 0.09371,-0.05512 0.163986,-0.14745 z m -0.593934,-1.048686 q -0.151584,0 -0.256315,0.110243 -0.104731,0.110243 -0.130913,0.316948 h 0.745518 v -0.01929 q -0.0096,-0.148828 -0.08682,-0.278364 -0.07579,-0.129535 -0.271473,-0.129535 z m 3.132279,0.310058 V 34.2729 q -0.0565,0.08268 -0.214974,0.187413 -0.158474,0.104731 -0.494715,0.104731 -0.366558,0 -0.602203,-0.250803 -0.235644,-0.252181 -0.235644,-0.702799 v -0.155718 q 0,-0.447862 0.209462,-0.700043 0.209461,-0.252181 0.598068,-0.252181 0.344509,0 0.522276,0.173633 0.179145,0.173633 0.21773,0.440972 h -0.265961 q -0.02756,-0.162608 -0.136426,-0.279742 -0.107487,-0.117133 -0.337619,-0.117133 -0.278364,0 -0.409277,0.19706 -0.130914,0.197059 -0.130914,0.534678 v 0.158474 q 0,0.347266 0.157096,0.542947 0.157097,0.194303 0.41479,0.194303 0.213595,0 0.30868,-0.04961 0.09508,-0.05099 0.135048,-0.09646 v -0.44924 h -0.464399 v -0.214974 z m 1.580609,0.738628 q -0.07304,0.110243 -0.206706,0.199816 -0.133669,0.08819 -0.354155,0.08819 -0.311437,0 -0.49885,-0.202572 -0.186035,-0.202571 -0.186035,-0.518141 v -0.05788 q 0,-0.243913 0.09233,-0.414789 0.09371,-0.172255 0.242534,-0.261827 0.148828,-0.09095 0.316949,-0.09095 0.319704,0 0.465776,0.209462 0.14745,0.208084 0.14745,0.520898 v 0.114377 h -1.008723 q 0.0055,0.205328 0.121267,0.350021 0.117134,0.143316 0.321083,0.143316 0.135048,0 0.228754,-0.05512 0.09371,-0.05512 0.163987,-0.14745 z m -0.593934,-1.048686 q -0.151584,0 -0.256315,0.110243 -0.104731,0.110243 -0.130914,0.316948 h 0.745519 v -0.01929 q -0.0096,-0.148828 -0.08682,-0.278364 -0.07579,-0.129535 -0.271473,-0.129535 z m 1.779045,0.913639 q 0,-0.08268 -0.06201,-0.14745 -0.06063,-0.06615 -0.281119,-0.110243 -0.249425,-0.05237 -0.394119,-0.148828 -0.143316,-0.09646 -0.143316,-0.28112 0,-0.176389 0.150206,-0.305924 0.151585,-0.129536 0.402387,-0.129536 0.26734,0 0.417546,0.136426 0.150206,0.136426 0.150206,0.329351 h -0.254937 q 0,-0.09233 -0.0813,-0.173633 -0.08131,-0.08268 -0.231511,-0.08268 -0.158474,0 -0.227376,0.0689 -0.0689,0.0689 -0.0689,0.150206 0,0.08268 0.06615,0.133669 0.06615,0.04961 0.276986,0.09646 0.274229,0.06339 0.405143,0.163986 0.130913,0.100597 0.130913,0.28112 0,0.197059 -0.158474,0.319705 -0.157096,0.122645 -0.417545,0.122645 -0.296278,0 -0.453375,-0.151584 -0.157096,-0.151584 -0.157096,-0.336241 h 0.256315 q 0.0083,0.158474 0.121267,0.219108 0.114377,0.05926 0.232889,0.05926 0.155718,0 0.2384,-0.06063 0.08268,-0.06063 0.08268,-0.152962 z m 1.219563,0.395496 q -0.03032,0.0096 -0.07993,0.01791 -0.04823,0.0096 -0.117134,0.0096 -0.141937,0 -0.242534,-0.08682 -0.100597,-0.08682 -0.100597,-0.311437 V 33.242061 H 82.931897 V 33.04638 h 0.272851 v -0.362424 h 0.254937 v 0.362424 h 0.278364 v 0.195681 h -0.278364 v 0.926041 q 0,0.114377 0.04961,0.146072 0.04961,0.03169 0.114377,0.03169 0.03169,0 0.06615,-0.0055 0.03583,-0.0069 0.05374,-0.01102 z m 0.293521,-1.886533 q 0,-0.06201 0.03721,-0.10473 0.03858,-0.04272 0.112999,-0.04272 0.07304,0 0.111621,0.04272 0.03996,0.04272 0.03996,0.10473 0,0.05926 -0.03996,0.101975 -0.03858,0.04134 -0.111621,0.04134 -0.07441,0 -0.112999,-0.04134 -0.03721,-0.04272 -0.03721,-0.101975 z m 0.275608,0.395497 v 1.491036 h -0.256315 v -1.491036 z m 0.341753,0.762055 V 33.7768 q 0,-0.323839 0.1819,-0.540191 0.181901,-0.21773 0.494716,-0.21773 0.31557,0 0.497471,0.21773 0.183279,0.216352 0.183279,0.540191 v 0.03169 q 0,0.323838 -0.183279,0.54019 -0.181901,0.216352 -0.494715,0.216352 -0.314193,0 -0.497472,-0.216352 -0.1819,-0.216352 -0.1819,-0.54019 z m 0.254936,-0.03169 v 0.03169 q 0,0.221864 0.104731,0.384472 0.106109,0.162608 0.319705,0.162608 0.209461,0 0.31557,-0.162608 0.106109,-0.162608 0.106109,-0.384472 V 33.7768 q 0,-0.219108 -0.106109,-0.383095 -0.106109,-0.165364 -0.318326,-0.165364 -0.21084,0 -0.316949,0.165364 -0.104731,0.163987 -0.104731,0.383095 z m 0.270096,-0.950846 0.267339,-0.405143 h 0.307302 l -0.369314,0.405143 z m 1.770779,0.407899 q -0.122646,0 -0.216352,0.06615 -0.09371,0.06615 -0.14745,0.172254 v 1.065223 h -0.254937 v -1.491036 h 0.241156 l 0.0083,0.186035 q 0.169498,-0.213596 0.445106,-0.213596 0.220486,0 0.348643,0.124024 0.129536,0.124023 0.129536,0.417545 v 0.977028 h -0.256315 v -0.979784 q 0,-0.175011 -0.07717,-0.249425 -0.07579,-0.07441 -0.220486,-0.07441 z m 2.601733,1.303623 -0.0124,-0.159852 q -0.152962,0.187413 -0.425814,0.187413 -0.263205,0 -0.425813,-0.214974 -0.161231,-0.214974 -0.161231,-0.541568 v -0.02894 q 0,-0.341753 0.161231,-0.551215 0.162608,-0.209462 0.428569,-0.209462 0.263205,0 0.413411,0.176389 V 32.42081 h 0.256315 v 2.116665 z m -0.768945,-0.728981 q 0,0.221864 0.09371,0.381716 0.09371,0.158474 0.300412,0.158474 0.133669,0 0.21773,-0.06063 0.08406,-0.06063 0.135047,-0.155718 v -0.686262 q -0.04961,-0.09233 -0.135047,-0.151584 -0.08406,-0.06063 -0.214974,-0.06063 -0.208084,0 -0.303168,0.162608 -0.09371,0.161231 -0.09371,0.383095 z m 2.578308,0.468532 q -0.07304,0.110243 -0.206706,0.199816 -0.133669,0.08819 -0.354155,0.08819 -0.311437,0 -0.49885,-0.202572 -0.186035,-0.202571 -0.186035,-0.518141 v -0.05788 q 0,-0.243913 0.09233,-0.414789 0.09371,-0.172255 0.242534,-0.261827 0.148828,-0.09095 0.316949,-0.09095 0.319704,0 0.465776,0.209462 0.14745,0.208084 0.14745,0.520898 v 0.114377 h -1.008723 q 0.0055,0.205328 0.121267,0.350021 0.117133,0.143316 0.321083,0.143316 0.135048,0 0.228754,-0.05512 0.09371,-0.05512 0.163987,-0.14745 z m -0.593934,-1.048686 q -0.151584,0 -0.256315,0.110243 -0.104731,0.110243 -0.130914,0.316948 h 0.745518 v -0.01929 q -0.0096,-0.148828 -0.08682,-0.278364 -0.07579,-0.129535 -0.271473,-0.129535 z"
           id="path2" />
        <path
           d="m 63.825416,36.058836 v 2.006422 h -0.265961 v -2.006422 z m 1.062466,0.702799 q -0.122645,0 -0.216351,0.06615 -0.09371,0.06615 -0.14745,0.172255 v 1.065222 h -0.254937 v -1.49104 H 64.5103 l 0.0083,0.186035 q 0.169498,-0.213596 0.445106,-0.213596 0.220485,0 0.348643,0.124024 0.129535,0.124023 0.129535,0.417545 v 0.977028 h -0.256315 v -0.979784 q 0,-0.175011 -0.07717,-0.249425 -0.07579,-0.07441 -0.220486,-0.07441 z m 1.807985,0.908127 q 0,-0.08268 -0.06201,-0.14745 -0.06063,-0.06615 -0.281119,-0.110243 -0.249425,-0.05237 -0.394119,-0.148828 -0.143316,-0.09646 -0.143316,-0.28112 0,-0.176389 0.150206,-0.305924 0.151584,-0.129536 0.402387,-0.129536 0.267339,0 0.417545,0.136426 0.150207,0.136426 0.150207,0.329351 h -0.254937 q 0,-0.09233 -0.0813,-0.173633 -0.0813,-0.08268 -0.23151,-0.08268 -0.158474,0 -0.227376,0.0689 -0.0689,0.0689 -0.0689,0.150206 0,0.08268 0.06615,0.13367 0.06615,0.04961 0.276986,0.09646 0.274229,0.06339 0.405142,0.163987 0.130914,0.100596 0.130914,0.281119 0,0.197059 -0.158474,0.319705 -0.157097,0.122645 -0.417546,0.122645 -0.296278,0 -0.453374,-0.151584 -0.157096,-0.151584 -0.157096,-0.336241 h 0.256315 q 0.0083,0.158474 0.121267,0.219108 0.114377,0.05925 0.232888,0.05925 0.155719,0 0.238401,-0.06063 0.08268,-0.06063 0.08268,-0.152962 z m 1.219563,0.395496 q -0.03032,0.0096 -0.07993,0.01792 -0.04823,0.0096 -0.117133,0.0096 -0.141938,0 -0.242535,-0.08682 -0.100596,-0.08682 -0.100596,-0.311437 v -0.924663 h -0.272852 v -0.195681 h 0.272852 v -0.362424 h 0.254936 v 0.362424 h 0.278364 v 0.195681 h -0.278364 v 0.926041 q 0,0.114377 0.04961,0.146072 0.04961,0.03169 0.114377,0.03169 0.03169,0 0.06615,-0.0055 0.03583,-0.0069 0.05374,-0.01102 z m 1.212673,0 q -0.02481,-0.05374 -0.03583,-0.157096 -0.07166,0.07579 -0.179145,0.130914 -0.107487,0.05374 -0.24529,0.05374 -0.228755,0 -0.366558,-0.128157 -0.137804,-0.128158 -0.137804,-0.314193 0,-0.239778 0.181901,-0.363802 0.181901,-0.125401 0.489203,-0.125401 h 0.252181 v -0.118511 q 0,-0.132292 -0.07993,-0.21084 -0.07855,-0.07993 -0.234267,-0.07993 -0.144694,0 -0.234266,0.07166 -0.08819,0.07028 -0.08819,0.163986 h -0.254937 q 0,-0.159852 0.16123,-0.300412 0.16123,-0.14056 0.431326,-0.14056 0.242534,0 0.398252,0.124024 0.155719,0.124023 0.155719,0.374826 v 0.694531 q 0,0.07441 0.0124,0.158474 0.01378,0.08406 0.03996,0.144694 v 0.02205 z m -0.423057,-0.195681 q 0.137803,0 0.2384,-0.0689 0.101975,-0.0689 0.143316,-0.152962 v -0.307302 h -0.21084 q -0.45613,0 -0.45613,0.275607 0,0.106109 0.07166,0.180523 0.07166,0.07304 0.213596,0.07304 z m 1.314647,-1.920984 v 2.116665 h -0.256315 v -2.116665 z m 1.329806,2.116665 q -0.02481,-0.05374 -0.03583,-0.157096 -0.07166,0.07579 -0.179145,0.130914 -0.107487,0.05374 -0.245291,0.05374 -0.228754,0 -0.366557,-0.128157 -0.137804,-0.128158 -0.137804,-0.314193 0,-0.239778 0.181901,-0.363802 0.181901,-0.125401 0.489203,-0.125401 h 0.252181 v -0.118511 q 0,-0.132292 -0.07993,-0.21084 -0.07855,-0.07993 -0.234267,-0.07993 -0.144694,0 -0.234266,0.07166 -0.08819,0.07028 -0.08819,0.163986 h -0.254937 q 0,-0.159852 0.16123,-0.300412 0.16123,-0.14056 0.431326,-0.14056 0.242534,0 0.398252,0.124024 0.155719,0.124023 0.155719,0.374826 v 0.694531 q 0,0.07441 0.0124,0.158474 0.01378,0.08406 0.03996,0.144694 v 0.02205 z m -0.423058,-0.195681 q 0.137804,0 0.238401,-0.0689 0.101975,-0.0689 0.143316,-0.152962 v -0.307302 h -0.21084 q -0.45613,0 -0.45613,0.275607 0,0.106109 0.07166,0.180523 0.07166,0.07304 0.213595,0.07304 z m 1.634353,0.01378 q 0.136425,0 0.2384,-0.0813 0.103353,-0.0813 0.112999,-0.208083 h 0.242535 q -0.0096,0.199815 -0.183279,0.350021 -0.173633,0.148828 -0.410655,0.148828 -0.336242,0 -0.500228,-0.221864 -0.162608,-0.221864 -0.162608,-0.522276 v -0.05788 q 0,-0.300412 0.162608,-0.522276 0.163986,-0.221864 0.500228,-0.221864 0.261827,0 0.423057,0.155719 0.16123,0.15434 0.170877,0.384472 h -0.242535 q -0.0096,-0.137804 -0.104731,-0.234266 -0.09371,-0.09646 -0.246668,-0.09646 -0.157097,0 -0.246669,0.07993 -0.08819,0.07993 -0.125402,0.202572 -0.03583,0.122645 -0.03583,0.25218 v 0.05788 q 0,0.130914 0.03583,0.253559 0.03583,0.122645 0.124024,0.202571 0.08957,0.07855 0.248047,0.07855 z m 0.881943,-1.704632 q 0,-0.06201 0.03721,-0.10473 0.03858,-0.04272 0.112999,-0.04272 0.07304,0 0.111621,0.04272 0.03996,0.04272 0.03996,0.10473 0,0.05926 -0.03996,0.101975 -0.03859,0.04134 -0.111621,0.04134 -0.07441,0 -0.112999,-0.04134 -0.03721,-0.04272 -0.03721,-0.101975 z m 0.275608,0.395497 v 1.491036 H 73.46203 v -1.491036 z m 0.341753,0.762055 v -0.03169 q 0,-0.323839 0.1819,-0.540191 0.181901,-0.21773 0.494716,-0.21773 0.31557,0 0.497471,0.21773 0.183279,0.216352 0.183279,0.540191 v 0.03169 q 0,0.323838 -0.183279,0.54019 -0.181901,0.216352 -0.494715,0.216352 -0.314193,0 -0.497472,-0.216352 -0.1819,-0.216352 -0.1819,-0.54019 z m 0.254936,-0.03169 v 0.03169 q 0,0.221864 0.104731,0.384472 0.106109,0.162608 0.319705,0.162608 0.209462,0 0.31557,-0.162608 0.106109,-0.162608 0.106109,-0.384472 v -0.03169 q 0,-0.219108 -0.106109,-0.383095 -0.106108,-0.165364 -0.318326,-0.165364 -0.21084,0 -0.316949,0.165364 -0.104731,0.163987 -0.104731,0.383095 z m 2.040874,-0.542947 q -0.122646,0 -0.216352,0.06615 -0.09371,0.06615 -0.14745,0.172255 v 1.065222 h -0.254937 v -1.491036 h 0.241156 l 0.0083,0.186035 q 0.169498,-0.213596 0.445106,-0.213596 0.220486,0 0.348643,0.124024 0.129536,0.124023 0.129536,0.417545 v 0.977028 h -0.256315 v -0.979784 q 0,-0.175011 -0.07717,-0.249425 -0.07579,-0.07441 -0.220486,-0.07441 z m 2.11942,1.043174 q -0.07304,0.110243 -0.206705,0.199816 -0.13367,0.08819 -0.354156,0.08819 -0.311436,0 -0.498849,-0.202571 -0.186035,-0.202572 -0.186035,-0.518142 v -0.05788 q 0,-0.243912 0.09233,-0.414789 0.09371,-0.172255 0.242535,-0.261827 0.148828,-0.09095 0.316948,-0.09095 0.319705,0 0.465777,0.209462 0.14745,0.208084 0.14745,0.520898 v 0.114377 H 77.4859 q 0.0055,0.205328 0.121267,0.350022 0.117133,0.143315 0.321082,0.143315 0.135048,0 0.228755,-0.05512 0.09371,-0.05512 0.163986,-0.14745 z m -0.593934,-1.048686 q -0.151584,0 -0.256315,0.110243 -0.104731,0.110243 -0.130913,0.316949 h 0.745518 v -0.01929 q -0.0096,-0.148828 -0.08682,-0.278363 -0.07579,-0.129536 -0.271474,-0.129536 z m 1.779046,0.913639 q 0,-0.08268 -0.06201,-0.14745 -0.06063,-0.06615 -0.28112,-0.110243 -0.249425,-0.05237 -0.394118,-0.148828 -0.143316,-0.09646 -0.143316,-0.28112 0,-0.176389 0.150206,-0.305924 0.151584,-0.129536 0.402387,-0.129536 0.267339,0 0.417545,0.136426 0.150206,0.136426 0.150206,0.329351 h -0.254937 q 0,-0.09233 -0.0813,-0.173633 -0.0813,-0.08268 -0.23151,-0.08268 -0.158475,0 -0.227377,0.0689 -0.0689,0.0689 -0.0689,0.150206 0,0.08268 0.06614,0.13367 0.06615,0.04961 0.276986,0.09646 0.274229,0.06339 0.405143,0.163987 0.130913,0.100596 0.130913,0.281119 0,0.197059 -0.158474,0.319705 -0.157096,0.122645 -0.417545,0.122645 -0.296278,0 -0.453374,-0.151584 -0.157097,-0.151584 -0.157097,-0.336241 h 0.256315 q 0.0083,0.158474 0.121268,0.219108 0.114377,0.05925 0.232888,0.05925 0.155718,0 0.2384,-0.06063 0.08268,-0.06063 0.08268,-0.152962 z m 1.327051,0.395496 v -2.006422 h 0.567751 q 0.395497,0 0.639409,0.254937 0.245291,0.253559 0.245291,0.689019 v 0.119889 q 0,0.43546 -0.246669,0.689018 -0.24529,0.253559 -0.662836,0.253559 z m 0.567751,-1.788692 h -0.30179 v 1.57234 h 0.276985 q 0.321083,0 0.483691,-0.198437 0.162609,-0.198437 0.162609,-0.527788 v -0.122645 q 0,-0.345888 -0.162609,-0.534679 -0.162608,-0.188791 -0.458886,-0.188791 z m 2.425345,1.528243 q -0.07304,0.110243 -0.206706,0.199816 -0.133669,0.08819 -0.354155,0.08819 -0.311437,0 -0.49885,-0.202571 -0.186035,-0.202572 -0.186035,-0.518142 v -0.05788 q 0,-0.243912 0.09233,-0.414789 0.09371,-0.172255 0.242534,-0.261827 0.148828,-0.09095 0.316949,-0.09095 0.319704,0 0.465776,0.209462 0.14745,0.208084 0.14745,0.520898 v 0.114377 h -1.008723 q 0.0055,0.205328 0.121267,0.350022 0.117134,0.143315 0.321083,0.143315 0.135048,0 0.228754,-0.05512 0.09371,-0.05512 0.163987,-0.14745 z m -0.593934,-1.048686 q -0.151584,0 -0.256315,0.110243 -0.104731,0.110243 -0.130914,0.316949 h 0.745518 v -0.01929 q -0.0096,-0.148828 -0.08682,-0.278363 -0.07579,-0.129536 -0.271473,-0.129536 z m 1.591632,1.336696 q -0.268717,0 -0.425813,-0.172255 v 0.717958 h -0.256315 v -2.0643 h 0.234266 l 0.0124,0.163987 q 0.157097,-0.191548 0.431326,-0.191548 0.282498,0 0.432704,0.209462 0.150206,0.209462 0.150206,0.551215 v 0.02894 q 0,0.326594 -0.151584,0.541568 -0.150207,0.214974 -0.427192,0.214974 z m -0.07855,-1.331184 q -0.129536,0 -0.213596,0.05926 -0.08406,0.05788 -0.133669,0.146072 v 0.713823 q 0.05099,0.08819 0.133669,0.146072 0.08406,0.0565 0.216352,0.0565 0.206706,0 0.30179,-0.162608 0.09646,-0.162608 0.09646,-0.384472 v -0.02894 q 0,-0.221864 -0.09646,-0.383094 -0.09508,-0.162609 -0.304546,-0.162609 z m 0.915017,0.574642 v -0.03169 q 0,-0.323839 0.181901,-0.540191 0.181901,-0.21773 0.494716,-0.21773 0.31557,0 0.497471,0.21773 0.183279,0.216352 0.183279,0.540191 v 0.03169 q 0,0.323838 -0.183279,0.54019 -0.181901,0.216352 -0.494715,0.216352 -0.314193,0 -0.497472,-0.216352 -0.181901,-0.216352 -0.181901,-0.54019 z m 0.254937,-0.03169 v 0.03169 q 0,0.221864 0.104731,0.384472 0.106109,0.162608 0.319705,0.162608 0.209461,0 0.31557,-0.162608 0.106109,-0.162608 0.106109,-0.384472 v -0.03169 q 0,-0.219108 -0.106109,-0.383095 -0.106109,-0.165364 -0.318326,-0.165364 -0.21084,0 -0.316949,0.165364 -0.104731,0.163987 -0.104731,0.383095 z m 2.017446,-0.51263 q -0.130914,0 -0.214974,0.05926 -0.08406,0.05788 -0.125401,0.155718 v 1.058332 h -0.254937 v -1.491036 h 0.248047 l 0.0055,0.170877 q 0.0565,-0.09095 0.143316,-0.144694 0.08819,-0.05374 0.210839,-0.05374 0.07166,0 0.112999,0.01929 l -0.0014,0.237022 q -0.0565,-0.01102 -0.124023,-0.01102 z m 1.06109,1.273306 q -0.03032,0.0096 -0.07993,0.01792 -0.04823,0.0096 -0.117134,0.0096 -0.141937,0 -0.242534,-0.08682 -0.100597,-0.08682 -0.100597,-0.311437 v -0.924663 h -0.272851 v -0.195681 h 0.272851 v -0.362424 h 0.254937 v 0.362424 h 0.278364 v 0.195681 h -0.278364 v 0.926041 q 0,0.114377 0.04961,0.146072 0.04961,0.03169 0.114378,0.03169 0.03169,0 0.06614,-0.0055 0.03583,-0.0069 0.05374,-0.01102 z m 0.293521,-1.886533 q 0,-0.06201 0.03721,-0.10473 0.03858,-0.04272 0.112999,-0.04272 0.07304,0 0.111621,0.04272 0.03996,0.04272 0.03996,0.10473 0,0.05926 -0.03996,0.101975 -0.03858,0.04134 -0.111621,0.04134 -0.07441,0 -0.112999,-0.04134 -0.03721,-0.04272 -0.03721,-0.101975 z m 0.275608,0.395497 v 1.491036 h -0.256315 v -1.491036 z m 1.530999,0 -0.536057,1.491036 h -0.194303 l -0.540191,-1.491036 h 0.261827 l 0.378961,1.142393 0.369314,-1.142393 z m 1.145148,1.491036 q -0.0248,-0.05374 -0.03583,-0.157096 -0.07166,0.07579 -0.179144,0.130914 -0.107487,0.05374 -0.245291,0.05374 -0.228754,0 -0.366558,-0.128157 -0.137804,-0.128158 -0.137804,-0.314193 0,-0.239778 0.181901,-0.363802 0.181901,-0.125401 0.489203,-0.125401 h 0.252181 v -0.118511 q 0,-0.132292 -0.07993,-0.21084 -0.07855,-0.07993 -0.234266,-0.07993 -0.144694,0 -0.234267,0.07166 -0.08819,0.07028 -0.08819,0.163986 h -0.254937 q 0,-0.159852 0.161231,-0.300412 0.16123,-0.14056 0.431325,-0.14056 0.242535,0 0.398253,0.124024 0.155718,0.124023 0.155718,0.374826 v 0.694531 q 0,0.07441 0.0124,0.158474 0.01378,0.08406 0.03996,0.144694 v 0.02205 z m -0.423057,-0.195681 q 0.137804,0 0.2384,-0.0689 0.101975,-0.0689 0.143316,-0.152962 v -0.307302 h -0.210839 q -0.456131,0 -0.456131,0.275607 0,0.106109 0.07166,0.180523 0.07166,0.07304 0.213596,0.07304 z m 1.905825,-0.199815 q 0,-0.08268 -0.06201,-0.14745 -0.06063,-0.06615 -0.28112,-0.110243 -0.249425,-0.05237 -0.394119,-0.148828 -0.143315,-0.09646 -0.143315,-0.28112 0,-0.176389 0.150206,-0.305924 0.151584,-0.129536 0.402386,-0.129536 0.26734,0 0.417546,0.136426 0.150206,0.136426 0.150206,0.329351 h -0.254937 q 0,-0.09233 -0.0813,-0.173633 -0.08131,-0.08268 -0.231511,-0.08268 -0.158474,0 -0.227376,0.0689 -0.0689,0.0689 -0.0689,0.150206 0,0.08268 0.06615,0.13367 0.06615,0.04961 0.276986,0.09646 0.274229,0.06339 0.405143,0.163987 0.130913,0.100596 0.130913,0.281119 0,0.197059 -0.158474,0.319705 -0.157096,0.122645 -0.417545,0.122645 -0.296278,0 -0.453375,-0.151584 -0.157096,-0.151584 -0.157096,-0.336241 h 0.256315 q 0.0083,0.158474 0.121267,0.219108 0.114377,0.05925 0.232889,0.05925 0.155718,0 0.2384,-0.06063 0.08268,-0.06063 0.08268,-0.152962 z"
           id="path3" />
      </g>
      <path
         id="rect3"
         style="fill:#ef3340;stroke-width:1.54105"
         d="m 61.057938,32.218349 h 0.629291 v 6.622642 h -0.629291 z" />
    </g>
  </g>
</svg>
